{
  "asset": {
    "version": "2.0",
    "generator": "THREE.GLTFExporter"
  },
  "scenes": [
    {
      "name": "Scene",
      "nodes": [
        1
      ]
    }
  ],
  "scene": 0,
  "nodes": [
    {
      "matrix": [
        0.01,
        0,
        0,
        0,
        0,
        2.220446049250313e-18,
        -0.01,
        0,
        0,
        0.01,
        2.220446049250313e-18,
        0,
        0.021381747591893874,
        -0.018119857928868173,
        0.2619897788859075,
        1
      ],
      "name": "42_logostl",
      "extras": {
        "name": "42_logo.stl"
      },
      "mesh": 0
    },
    {
      "name": "scene.gltf",
      "children": [
        0
      ]
    }
  ],
  "bufferViews": [
    {
      "buffer": 0,
      "byteOffset": 0,
      "byteLength": 3168,
      "target": 34962,
      "byteStride": 12
    },
    {
      "buffer": 0,
      "byteOffset": 3168,
      "byteLength": 3168,
      "target": 34962,
      "byteStride": 12
    }
  ],
  "buffers": [
    {
      "byteLength": 6336,
      "uri": "data:application/octet-stream;base64,"
    }
  ],
  "accessors": [
    {
      "bufferView": 0,
      "componentType": 5126,
      "count": 264,
      "max": [
        71.5625,
        249.62509155273438,
        360.6911315917969
      ],
      "min": [
        -3.25,
        -202.4375,
        0
      ],
      "type": "VEC3"
    },
    {
      "bufferView": 1,
      "componentType": 5126,
      "count": 264,
      "max": [
        1,
        1,
        1
      ],
      "min": [
        -1,
        -1,
        -1
      ],
      "type": "VEC3"
    }
  ],
  "materials": [
    {
      "pbrMetallicRoughness": {
        "metallicFactor": 0,
        "roughnessFactor": 1
      },
      "emissiveFactor": [
        0.17464740364527903,
        0,
        0
      ]
    }
  ],
  "meshes": [
    {
      "primitives": [
        {
          "mode": 4,
          "attributes": {
            "POSITION": 0,
            "NORMAL": 1
          },
          "material": 0
        }
      ]
    }
  ]
}